<svg width="1786" height="792" viewBox="0 0 1786 792" fill="none" xmlns="http://www.w3.org/2000/svg">
<g opacity="0.6" clip-path="url(#clip0_0_280)">
<path d="M1698 493.364C1648.38 553.026 1546.06 479.618 1401.04 516.048C1275.44 547.615 1269.9 624.023 1168.94 622.53C1095.18 621.453 1013.91 580.72 968.095 507.585C917.569 426.949 933.376 343.33 937.884 323.024C958.003 231.945 1022.73 182.674 1045.57 165.828C1139.7 96.4669 1247.3 105.808 1298.93 110.263C1492.83 127.062 1703.04 260.461 1715.67 410.389C1717.34 430.017 1720.39 466.423 1698 493.364Z" fill="url(#paint0_linear_0_280)"/>
</g>
<g opacity="0.3">
<mask id="mask0_0_280" style="mask-type:alpha" maskUnits="userSpaceOnUse" x="0" y="127" width="11" height="11">
<path d="M5.22838 137.434C8.11594 137.434 10.4568 135.1 10.4568 132.221C10.4568 129.342 8.11594 127.009 5.22838 127.009C2.34082 127.009 0 129.342 0 132.221C0 135.1 2.34082 137.434 5.22838 137.434Z" fill="url(#paint1_linear_0_280)"/>
</mask>
<g mask="url(#mask0_0_280)">
<path d="M5.22838 137.434C8.11594 137.434 10.4568 135.1 10.4568 132.221C10.4568 129.342 8.11594 127.009 5.22838 127.009C2.34082 127.009 0 129.342 0 132.221C0 135.1 2.34082 137.434 5.22838 137.434Z" fill="url(#paint2_linear_0_280)"/>
</g>
<mask id="mask1_0_280" style="mask-type:alpha" maskUnits="userSpaceOnUse" x="30" y="127" width="11" height="11">
<path d="M35.5094 137.434C38.397 137.434 40.7378 135.1 40.7378 132.221C40.7378 129.342 38.397 127.009 35.5094 127.009C32.6219 127.009 30.2811 129.342 30.2811 132.221C30.2811 135.1 32.6219 137.434 35.5094 137.434Z" fill="url(#paint3_linear_0_280)"/>
</mask>
<g mask="url(#mask1_0_280)">
<path d="M35.5094 137.434C38.397 137.434 40.7378 135.1 40.7378 132.221C40.7378 129.342 38.397 127.009 35.5094 127.009C32.6219 127.009 30.2811 129.342 30.2811 132.221C30.2811 135.1 32.6219 137.434 35.5094 137.434Z" fill="url(#paint4_linear_0_280)"/>
</g>
<mask id="mask2_0_280" style="mask-type:alpha" maskUnits="userSpaceOnUse" x="60" y="127" width="12" height="11">
<path d="M65.7905 137.434C68.6781 137.434 71.0189 135.1 71.0189 132.221C71.0189 129.342 68.6781 127.009 65.7905 127.009C62.9029 127.009 60.5621 129.342 60.5621 132.221C60.5621 135.1 62.9029 137.434 65.7905 137.434Z" fill="url(#paint5_linear_0_280)"/>
</mask>
<g mask="url(#mask2_0_280)">
<path d="M65.7905 137.434C68.6781 137.434 71.0189 135.1 71.0189 132.221C71.0189 129.342 68.6781 127.009 65.7905 127.009C62.9029 127.009 60.5621 129.342 60.5621 132.221C60.5621 135.1 62.9029 137.434 65.7905 137.434Z" fill="url(#paint6_linear_0_280)"/>
</g>
<mask id="mask3_0_280" style="mask-type:alpha" maskUnits="userSpaceOnUse" x="90" y="127" width="12" height="11">
<path d="M96.0716 137.434C98.9592 137.434 101.3 135.1 101.3 132.221C101.3 129.342 98.9592 127.009 96.0716 127.009C93.184 127.009 90.8432 129.342 90.8432 132.221C90.8432 135.1 93.184 137.434 96.0716 137.434Z" fill="url(#paint7_linear_0_280)"/>
</mask>
<g mask="url(#mask3_0_280)">
<path d="M96.0716 137.434C98.9592 137.434 101.3 135.1 101.3 132.221C101.3 129.342 98.9592 127.009 96.0716 127.009C93.184 127.009 90.8432 129.342 90.8432 132.221C90.8432 135.1 93.184 137.434 96.0716 137.434Z" fill="url(#paint8_linear_0_280)"/>
</g>
<mask id="mask4_0_280" style="mask-type:alpha" maskUnits="userSpaceOnUse" x="121" y="127" width="11" height="11">
<path d="M126.353 137.434C129.24 137.434 131.581 135.1 131.581 132.221C131.581 129.342 129.24 127.009 126.353 127.009C123.465 127.009 121.124 129.342 121.124 132.221C121.124 135.1 123.465 137.434 126.353 137.434Z" fill="url(#paint9_linear_0_280)"/>
</mask>
<g mask="url(#mask4_0_280)">
<path d="M126.353 137.434C129.24 137.434 131.581 135.1 131.581 132.221C131.581 129.342 129.24 127.009 126.353 127.009C123.465 127.009 121.124 129.342 121.124 132.221C121.124 135.1 123.465 137.434 126.353 137.434Z" fill="url(#paint10_linear_0_280)"/>
</g>
<mask id="mask5_0_280" style="mask-type:alpha" maskUnits="userSpaceOnUse" x="0" y="153" width="11" height="11">
<path d="M5.22838 163.604C8.11594 163.604 10.4568 161.271 10.4568 158.392C10.4568 155.513 8.11594 153.179 5.22838 153.179C2.34082 153.179 0 155.513 0 158.392C0 161.271 2.34082 163.604 5.22838 163.604Z" fill="url(#paint11_linear_0_280)"/>
</mask>
<g mask="url(#mask5_0_280)">
<path d="M5.22838 163.604C8.11594 163.604 10.4568 161.271 10.4568 158.392C10.4568 155.513 8.11594 153.179 5.22838 153.179C2.34082 153.179 0 155.513 0 158.392C0 161.271 2.34082 163.604 5.22838 163.604Z" fill="url(#paint12_linear_0_280)"/>
</g>
<mask id="mask6_0_280" style="mask-type:alpha" maskUnits="userSpaceOnUse" x="30" y="153" width="11" height="11">
<path d="M35.5094 163.604C38.397 163.604 40.7378 161.271 40.7378 158.392C40.7378 155.513 38.397 153.179 35.5094 153.179C32.6219 153.179 30.2811 155.513 30.2811 158.392C30.2811 161.271 32.6219 163.604 35.5094 163.604Z" fill="url(#paint13_linear_0_280)"/>
</mask>
<g mask="url(#mask6_0_280)">
<path d="M35.5094 163.604C38.397 163.604 40.7378 161.271 40.7378 158.392C40.7378 155.513 38.397 153.179 35.5094 153.179C32.6219 153.179 30.2811 155.513 30.2811 158.392C30.2811 161.271 32.6219 163.604 35.5094 163.604Z" fill="url(#paint14_linear_0_280)"/>
</g>
<mask id="mask7_0_280" style="mask-type:alpha" maskUnits="userSpaceOnUse" x="60" y="153" width="12" height="11">
<path d="M65.7905 163.604C68.6781 163.604 71.0189 161.271 71.0189 158.392C71.0189 155.513 68.6781 153.179 65.7905 153.179C62.9029 153.179 60.5621 155.513 60.5621 158.392C60.5621 161.271 62.9029 163.604 65.7905 163.604Z" fill="url(#paint15_linear_0_280)"/>
</mask>
<g mask="url(#mask7_0_280)">
<path d="M65.7905 163.604C68.6781 163.604 71.0189 161.271 71.0189 158.392C71.0189 155.513 68.6781 153.179 65.7905 153.179C62.9029 153.179 60.5621 155.513 60.5621 158.392C60.5621 161.271 62.9029 163.604 65.7905 163.604Z" fill="url(#paint16_linear_0_280)"/>
</g>
<mask id="mask8_0_280" style="mask-type:alpha" maskUnits="userSpaceOnUse" x="90" y="153" width="12" height="11">
<path d="M96.0716 163.604C98.9592 163.604 101.3 161.271 101.3 158.392C101.3 155.513 98.9592 153.179 96.0716 153.179C93.184 153.179 90.8432 155.513 90.8432 158.392C90.8432 161.271 93.184 163.604 96.0716 163.604Z" fill="url(#paint17_linear_0_280)"/>
</mask>
<g mask="url(#mask8_0_280)">
<path d="M96.0716 163.604C98.9592 163.604 101.3 161.271 101.3 158.392C101.3 155.513 98.9592 153.179 96.0716 153.179C93.184 153.179 90.8432 155.513 90.8432 158.392C90.8432 161.271 93.184 163.604 96.0716 163.604Z" fill="url(#paint18_linear_0_280)"/>
</g>
<mask id="mask9_0_280" style="mask-type:alpha" maskUnits="userSpaceOnUse" x="121" y="153" width="11" height="11">
<path d="M126.353 163.604C129.24 163.604 131.581 161.271 131.581 158.392C131.581 155.513 129.24 153.179 126.353 153.179C123.465 153.179 121.124 155.513 121.124 158.392C121.124 161.271 123.465 163.604 126.353 163.604Z" fill="url(#paint19_linear_0_280)"/>
</mask>
<g mask="url(#mask9_0_280)">
<path d="M126.353 163.604C129.24 163.604 131.581 161.271 131.581 158.392C131.581 155.513 129.24 153.179 126.353 153.179C123.465 153.179 121.124 155.513 121.124 158.392C121.124 161.271 123.465 163.604 126.353 163.604Z" fill="url(#paint20_linear_0_280)"/>
</g>
<mask id="mask10_0_280" style="mask-type:alpha" maskUnits="userSpaceOnUse" x="0" y="179" width="11" height="11">
<path d="M5.22838 189.721C8.11594 189.721 10.4568 187.387 10.4568 184.508C10.4568 181.63 8.11594 179.296 5.22838 179.296C2.34082 179.296 0 181.63 0 184.508C0 187.387 2.34082 189.721 5.22838 189.721Z" fill="url(#paint21_linear_0_280)"/>
</mask>
<g mask="url(#mask10_0_280)">
<path d="M5.22838 189.721C8.11594 189.721 10.4568 187.387 10.4568 184.508C10.4568 181.63 8.11594 179.296 5.22838 179.296C2.34082 179.296 0 181.63 0 184.508C0 187.387 2.34082 189.721 5.22838 189.721Z" fill="url(#paint22_linear_0_280)"/>
</g>
<mask id="mask11_0_280" style="mask-type:alpha" maskUnits="userSpaceOnUse" x="30" y="179" width="11" height="11">
<path d="M35.5094 189.721C38.397 189.721 40.7378 187.387 40.7378 184.508C40.7378 181.63 38.397 179.296 35.5094 179.296C32.6219 179.296 30.2811 181.63 30.2811 184.508C30.2811 187.387 32.6219 189.721 35.5094 189.721Z" fill="url(#paint23_linear_0_280)"/>
</mask>
<g mask="url(#mask11_0_280)">
<path d="M35.5094 189.721C38.397 189.721 40.7378 187.387 40.7378 184.508C40.7378 181.63 38.397 179.296 35.5094 179.296C32.6219 179.296 30.2811 181.63 30.2811 184.508C30.2811 187.387 32.6219 189.721 35.5094 189.721Z" fill="url(#paint24_linear_0_280)"/>
</g>
<mask id="mask12_0_280" style="mask-type:alpha" maskUnits="userSpaceOnUse" x="60" y="179" width="12" height="11">
<path d="M65.7905 189.721C68.6781 189.721 71.0189 187.387 71.0189 184.508C71.0189 181.63 68.6781 179.296 65.7905 179.296C62.9029 179.296 60.5621 181.63 60.5621 184.508C60.5621 187.387 62.9029 189.721 65.7905 189.721Z" fill="url(#paint25_linear_0_280)"/>
</mask>
<g mask="url(#mask12_0_280)">
<path d="M65.7905 189.721C68.6781 189.721 71.0189 187.387 71.0189 184.508C71.0189 181.63 68.6781 179.296 65.7905 179.296C62.9029 179.296 60.5621 181.63 60.5621 184.508C60.5621 187.387 62.9029 189.721 65.7905 189.721Z" fill="url(#paint26_linear_0_280)"/>
</g>
<mask id="mask13_0_280" style="mask-type:alpha" maskUnits="userSpaceOnUse" x="90" y="179" width="12" height="11">
<path d="M96.0716 189.721C98.9592 189.721 101.3 187.387 101.3 184.508C101.3 181.63 98.9592 179.296 96.0716 179.296C93.184 179.296 90.8432 181.63 90.8432 184.508C90.8432 187.387 93.184 189.721 96.0716 189.721Z" fill="url(#paint27_linear_0_280)"/>
</mask>
<g mask="url(#mask13_0_280)">
<path d="M96.0716 189.721C98.9592 189.721 101.3 187.387 101.3 184.508C101.3 181.63 98.9592 179.296 96.0716 179.296C93.184 179.296 90.8432 181.63 90.8432 184.508C90.8432 187.387 93.184 189.721 96.0716 189.721Z" fill="url(#paint28_linear_0_280)"/>
</g>
<mask id="mask14_0_280" style="mask-type:alpha" maskUnits="userSpaceOnUse" x="121" y="179" width="11" height="11">
<path d="M126.353 189.721C129.24 189.721 131.581 187.387 131.581 184.508C131.581 181.63 129.24 179.296 126.353 179.296C123.465 179.296 121.124 181.63 121.124 184.508C121.124 187.387 123.465 189.721 126.353 189.721Z" fill="url(#paint29_linear_0_280)"/>
</mask>
<g mask="url(#mask14_0_280)">
<path d="M126.353 189.721C129.24 189.721 131.581 187.387 131.581 184.508C131.581 181.63 129.24 179.296 126.353 179.296C123.465 179.296 121.124 181.63 121.124 184.508C121.124 187.387 123.465 189.721 126.353 189.721Z" fill="url(#paint30_linear_0_280)"/>
</g>
<mask id="mask15_0_280" style="mask-type:alpha" maskUnits="userSpaceOnUse" x="0" y="205" width="11" height="11">
<path d="M5.22838 215.892C8.11594 215.892 10.4568 213.558 10.4568 210.679C10.4568 207.801 8.11594 205.467 5.22838 205.467C2.34082 205.467 0 207.801 0 210.679C0 213.558 2.34082 215.892 5.22838 215.892Z" fill="url(#paint31_linear_0_280)"/>
</mask>
<g mask="url(#mask15_0_280)">
<path d="M5.22838 215.892C8.11594 215.892 10.4568 213.558 10.4568 210.679C10.4568 207.801 8.11594 205.467 5.22838 205.467C2.34082 205.467 0 207.801 0 210.679C0 213.558 2.34082 215.892 5.22838 215.892Z" fill="url(#paint32_linear_0_280)"/>
</g>
<mask id="mask16_0_280" style="mask-type:alpha" maskUnits="userSpaceOnUse" x="30" y="205" width="11" height="11">
<path d="M35.5094 215.892C38.397 215.892 40.7378 213.558 40.7378 210.679C40.7378 207.801 38.397 205.467 35.5094 205.467C32.6219 205.467 30.2811 207.801 30.2811 210.679C30.2811 213.558 32.6219 215.892 35.5094 215.892Z" fill="url(#paint33_linear_0_280)"/>
</mask>
<g mask="url(#mask16_0_280)">
<path d="M35.5094 215.892C38.397 215.892 40.7378 213.558 40.7378 210.679C40.7378 207.801 38.397 205.467 35.5094 205.467C32.6219 205.467 30.2811 207.801 30.2811 210.679C30.2811 213.558 32.6219 215.892 35.5094 215.892Z" fill="url(#paint34_linear_0_280)"/>
</g>
<mask id="mask17_0_280" style="mask-type:alpha" maskUnits="userSpaceOnUse" x="60" y="205" width="12" height="11">
<path d="M65.7905 215.892C68.6781 215.892 71.0189 213.558 71.0189 210.679C71.0189 207.801 68.6781 205.467 65.7905 205.467C62.9029 205.467 60.5621 207.801 60.5621 210.679C60.5621 213.558 62.9029 215.892 65.7905 215.892Z" fill="url(#paint35_linear_0_280)"/>
</mask>
<g mask="url(#mask17_0_280)">
<path d="M65.7905 215.892C68.6781 215.892 71.0189 213.558 71.0189 210.679C71.0189 207.801 68.6781 205.467 65.7905 205.467C62.9029 205.467 60.5621 207.801 60.5621 210.679C60.5621 213.558 62.9029 215.892 65.7905 215.892Z" fill="url(#paint36_linear_0_280)"/>
</g>
<mask id="mask18_0_280" style="mask-type:alpha" maskUnits="userSpaceOnUse" x="90" y="205" width="12" height="11">
<path d="M96.0716 215.892C98.9592 215.892 101.3 213.558 101.3 210.679C101.3 207.801 98.9592 205.467 96.0716 205.467C93.184 205.467 90.8432 207.801 90.8432 210.679C90.8432 213.558 93.184 215.892 96.0716 215.892Z" fill="url(#paint37_linear_0_280)"/>
</mask>
<g mask="url(#mask18_0_280)">
<path d="M96.0716 215.892C98.9592 215.892 101.3 213.558 101.3 210.679C101.3 207.801 98.9592 205.467 96.0716 205.467C93.184 205.467 90.8432 207.801 90.8432 210.679C90.8432 213.558 93.184 215.892 96.0716 215.892Z" fill="url(#paint38_linear_0_280)"/>
</g>
<mask id="mask19_0_280" style="mask-type:alpha" maskUnits="userSpaceOnUse" x="121" y="205" width="11" height="11">
<path d="M126.353 215.892C129.24 215.892 131.581 213.558 131.581 210.679C131.581 207.801 129.24 205.467 126.353 205.467C123.465 205.467 121.124 207.801 121.124 210.679C121.124 213.558 123.465 215.892 126.353 215.892Z" fill="url(#paint39_linear_0_280)"/>
</mask>
<g mask="url(#mask19_0_280)">
<path d="M126.353 215.892C129.24 215.892 131.581 213.558 131.581 210.679C131.581 207.801 129.24 205.467 126.353 205.467C123.465 205.467 121.124 207.801 121.124 210.679C121.124 213.558 123.465 215.892 126.353 215.892Z" fill="url(#paint40_linear_0_280)"/>
</g>
<mask id="mask20_0_280" style="mask-type:alpha" maskUnits="userSpaceOnUse" x="0" y="231" width="11" height="12">
<path d="M5.22838 242.009C8.11594 242.009 10.4568 239.675 10.4568 236.796C10.4568 233.917 8.11594 231.584 5.22838 231.584C2.34082 231.584 0 233.917 0 236.796C0 239.675 2.34082 242.009 5.22838 242.009Z" fill="url(#paint41_linear_0_280)"/>
</mask>
<g mask="url(#mask20_0_280)">
<path d="M5.22838 242.009C8.11594 242.009 10.4568 239.675 10.4568 236.796C10.4568 233.917 8.11594 231.584 5.22838 231.584C2.34082 231.584 0 233.917 0 236.796C0 239.675 2.34082 242.009 5.22838 242.009Z" fill="url(#paint42_linear_0_280)"/>
</g>
<mask id="mask21_0_280" style="mask-type:alpha" maskUnits="userSpaceOnUse" x="30" y="231" width="11" height="12">
<path d="M35.5094 242.009C38.397 242.009 40.7378 239.675 40.7378 236.796C40.7378 233.917 38.397 231.584 35.5094 231.584C32.6219 231.584 30.2811 233.917 30.2811 236.796C30.2811 239.675 32.6219 242.009 35.5094 242.009Z" fill="url(#paint43_linear_0_280)"/>
</mask>
<g mask="url(#mask21_0_280)">
<path d="M35.5094 242.009C38.397 242.009 40.7378 239.675 40.7378 236.796C40.7378 233.917 38.397 231.584 35.5094 231.584C32.6219 231.584 30.2811 233.917 30.2811 236.796C30.2811 239.675 32.6219 242.009 35.5094 242.009Z" fill="url(#paint44_linear_0_280)"/>
</g>
<mask id="mask22_0_280" style="mask-type:alpha" maskUnits="userSpaceOnUse" x="60" y="231" width="12" height="12">
<path d="M65.7905 242.009C68.6781 242.009 71.0189 239.675 71.0189 236.796C71.0189 233.917 68.6781 231.584 65.7905 231.584C62.9029 231.584 60.5621 233.917 60.5621 236.796C60.5621 239.675 62.9029 242.009 65.7905 242.009Z" fill="url(#paint45_linear_0_280)"/>
</mask>
<g mask="url(#mask22_0_280)">
<path d="M65.7905 242.009C68.6781 242.009 71.0189 239.675 71.0189 236.796C71.0189 233.917 68.6781 231.584 65.7905 231.584C62.9029 231.584 60.5621 233.917 60.5621 236.796C60.5621 239.675 62.9029 242.009 65.7905 242.009Z" fill="url(#paint46_linear_0_280)"/>
</g>
<mask id="mask23_0_280" style="mask-type:alpha" maskUnits="userSpaceOnUse" x="90" y="231" width="12" height="12">
<path d="M96.0716 242.009C98.9592 242.009 101.3 239.675 101.3 236.796C101.3 233.917 98.9592 231.584 96.0716 231.584C93.184 231.584 90.8432 233.917 90.8432 236.796C90.8432 239.675 93.184 242.009 96.0716 242.009Z" fill="url(#paint47_linear_0_280)"/>
</mask>
<g mask="url(#mask23_0_280)">
<path d="M96.0716 242.009C98.9592 242.009 101.3 239.675 101.3 236.796C101.3 233.917 98.9592 231.584 96.0716 231.584C93.184 231.584 90.8432 233.917 90.8432 236.796C90.8432 239.675 93.184 242.009 96.0716 242.009Z" fill="url(#paint48_linear_0_280)"/>
</g>
<mask id="mask24_0_280" style="mask-type:alpha" maskUnits="userSpaceOnUse" x="121" y="231" width="11" height="12">
<path d="M126.353 242.009C129.24 242.009 131.581 239.675 131.581 236.796C131.581 233.917 129.24 231.584 126.353 231.584C123.465 231.584 121.124 233.917 121.124 236.796C121.124 239.675 123.465 242.009 126.353 242.009Z" fill="url(#paint49_linear_0_280)"/>
</mask>
<g mask="url(#mask24_0_280)">
<path d="M126.353 242.009C129.24 242.009 131.581 239.675 131.581 236.796C131.581 233.917 129.24 231.584 126.353 231.584C123.465 231.584 121.124 233.917 121.124 236.796C121.124 239.675 123.465 242.009 126.353 242.009Z" fill="url(#paint50_linear_0_280)"/>
</g>
</g>
<defs>
<linearGradient id="paint0_linear_0_280" x1="1218.01" y1="742.124" x2="1399.15" y2="151.875" gradientUnits="userSpaceOnUse">
<stop stop-color="#F3F7FF"/>
<stop offset="1" stop-color="#DEEEFE"/>
</linearGradient>
<linearGradient id="paint1_linear_0_280" x1="54.996" y1="258.142" x2="-16.4057" y2="76.3386" gradientUnits="userSpaceOnUse">
<stop/>
<stop offset="1" stop-color="white"/>
</linearGradient>
<linearGradient id="paint2_linear_0_280" x1="54.996" y1="258.142" x2="-16.4057" y2="76.3386" gradientUnits="userSpaceOnUse">
<stop stop-color="#97C3F9"/>
<stop offset="1" stop-color="#93C1F9"/>
</linearGradient>
<linearGradient id="paint3_linear_0_280" x1="81.2005" y1="247.851" x2="9.79887" y2="66.0473" gradientUnits="userSpaceOnUse">
<stop/>
<stop offset="1" stop-color="white"/>
</linearGradient>
<linearGradient id="paint4_linear_0_280" x1="81.2005" y1="247.851" x2="9.79887" y2="66.0473" gradientUnits="userSpaceOnUse">
<stop stop-color="#97C3F9"/>
<stop offset="1" stop-color="#93C1F9"/>
</linearGradient>
<linearGradient id="paint5_linear_0_280" x1="107.405" y1="237.56" x2="36.0033" y2="55.756" gradientUnits="userSpaceOnUse">
<stop/>
<stop offset="1" stop-color="white"/>
</linearGradient>
<linearGradient id="paint6_linear_0_280" x1="107.405" y1="237.56" x2="36.0033" y2="55.756" gradientUnits="userSpaceOnUse">
<stop stop-color="#97C3F9"/>
<stop offset="1" stop-color="#93C1F9"/>
</linearGradient>
<linearGradient id="paint7_linear_0_280" x1="133.609" y1="227.268" x2="62.2075" y2="45.4641" gradientUnits="userSpaceOnUse">
<stop/>
<stop offset="1" stop-color="white"/>
</linearGradient>
<linearGradient id="paint8_linear_0_280" x1="133.609" y1="227.268" x2="62.2075" y2="45.4641" gradientUnits="userSpaceOnUse">
<stop stop-color="#97C3F9"/>
<stop offset="1" stop-color="#93C1F9"/>
</linearGradient>
<linearGradient id="paint9_linear_0_280" x1="159.813" y1="216.976" x2="88.4119" y2="35.1726" gradientUnits="userSpaceOnUse">
<stop/>
<stop offset="1" stop-color="white"/>
</linearGradient>
<linearGradient id="paint10_linear_0_280" x1="159.813" y1="216.976" x2="88.4119" y2="35.1726" gradientUnits="userSpaceOnUse">
<stop stop-color="#97C3F9"/>
<stop offset="1" stop-color="#93C1F9"/>
</linearGradient>
<linearGradient id="paint11_linear_0_280" x1="46.0538" y1="261.654" x2="-25.3466" y2="79.8514" gradientUnits="userSpaceOnUse">
<stop/>
<stop offset="1" stop-color="white"/>
</linearGradient>
<linearGradient id="paint12_linear_0_280" x1="46.0538" y1="261.654" x2="-25.3466" y2="79.8514" gradientUnits="userSpaceOnUse">
<stop stop-color="#97C3F9"/>
<stop offset="1" stop-color="#93C1F9"/>
</linearGradient>
<linearGradient id="paint13_linear_0_280" x1="72.2581" y1="251.362" x2="0.857702" y2="69.5595" gradientUnits="userSpaceOnUse">
<stop/>
<stop offset="1" stop-color="white"/>
</linearGradient>
<linearGradient id="paint14_linear_0_280" x1="72.2581" y1="251.362" x2="0.857702" y2="69.5595" gradientUnits="userSpaceOnUse">
<stop stop-color="#97C3F9"/>
<stop offset="1" stop-color="#93C1F9"/>
</linearGradient>
<linearGradient id="paint15_linear_0_280" x1="98.4624" y1="241.071" x2="27.062" y2="59.2682" gradientUnits="userSpaceOnUse">
<stop/>
<stop offset="1" stop-color="white"/>
</linearGradient>
<linearGradient id="paint16_linear_0_280" x1="98.4624" y1="241.071" x2="27.062" y2="59.2682" gradientUnits="userSpaceOnUse">
<stop stop-color="#97C3F9"/>
<stop offset="1" stop-color="#93C1F9"/>
</linearGradient>
<linearGradient id="paint17_linear_0_280" x1="124.667" y1="230.779" x2="53.2663" y2="48.9767" gradientUnits="userSpaceOnUse">
<stop/>
<stop offset="1" stop-color="white"/>
</linearGradient>
<linearGradient id="paint18_linear_0_280" x1="124.667" y1="230.779" x2="53.2663" y2="48.9767" gradientUnits="userSpaceOnUse">
<stop stop-color="#97C3F9"/>
<stop offset="1" stop-color="#93C1F9"/>
</linearGradient>
<linearGradient id="paint19_linear_0_280" x1="150.871" y1="220.488" x2="79.4707" y2="38.6854" gradientUnits="userSpaceOnUse">
<stop/>
<stop offset="1" stop-color="white"/>
</linearGradient>
<linearGradient id="paint20_linear_0_280" x1="150.871" y1="220.488" x2="79.4707" y2="38.6854" gradientUnits="userSpaceOnUse">
<stop stop-color="#97C3F9"/>
<stop offset="1" stop-color="#93C1F9"/>
</linearGradient>
<linearGradient id="paint21_linear_0_280" x1="37.1113" y1="265.167" x2="-34.2903" y2="83.3627" gradientUnits="userSpaceOnUse">
<stop/>
<stop offset="1" stop-color="white"/>
</linearGradient>
<linearGradient id="paint22_linear_0_280" x1="37.1113" y1="265.167" x2="-34.2903" y2="83.3627" gradientUnits="userSpaceOnUse">
<stop stop-color="#97C3F9"/>
<stop offset="1" stop-color="#93C1F9"/>
</linearGradient>
<linearGradient id="paint23_linear_0_280" x1="63.3157" y1="254.875" x2="-8.08592" y2="73.0711" gradientUnits="userSpaceOnUse">
<stop/>
<stop offset="1" stop-color="white"/>
</linearGradient>
<linearGradient id="paint24_linear_0_280" x1="63.3157" y1="254.875" x2="-8.08592" y2="73.0711" gradientUnits="userSpaceOnUse">
<stop stop-color="#97C3F9"/>
<stop offset="1" stop-color="#93C1F9"/>
</linearGradient>
<linearGradient id="paint25_linear_0_280" x1="89.52" y1="244.583" x2="18.1185" y2="62.7797" gradientUnits="userSpaceOnUse">
<stop/>
<stop offset="1" stop-color="white"/>
</linearGradient>
<linearGradient id="paint26_linear_0_280" x1="89.52" y1="244.583" x2="18.1185" y2="62.7797" gradientUnits="userSpaceOnUse">
<stop stop-color="#97C3F9"/>
<stop offset="1" stop-color="#93C1F9"/>
</linearGradient>
<linearGradient id="paint27_linear_0_280" x1="115.724" y1="234.292" x2="44.3227" y2="52.4881" gradientUnits="userSpaceOnUse">
<stop/>
<stop offset="1" stop-color="white"/>
</linearGradient>
<linearGradient id="paint28_linear_0_280" x1="115.724" y1="234.292" x2="44.3227" y2="52.4881" gradientUnits="userSpaceOnUse">
<stop stop-color="#97C3F9"/>
<stop offset="1" stop-color="#93C1F9"/>
</linearGradient>
<linearGradient id="paint29_linear_0_280" x1="141.929" y1="224" x2="70.5271" y2="42.1966" gradientUnits="userSpaceOnUse">
<stop/>
<stop offset="1" stop-color="white"/>
</linearGradient>
<linearGradient id="paint30_linear_0_280" x1="141.929" y1="224" x2="70.5271" y2="42.1966" gradientUnits="userSpaceOnUse">
<stop stop-color="#97C3F9"/>
<stop offset="1" stop-color="#93C1F9"/>
</linearGradient>
<linearGradient id="paint31_linear_0_280" x1="28.169" y1="268.678" x2="-43.2327" y2="86.8746" gradientUnits="userSpaceOnUse">
<stop/>
<stop offset="1" stop-color="white"/>
</linearGradient>
<linearGradient id="paint32_linear_0_280" x1="28.169" y1="268.678" x2="-43.2327" y2="86.8746" gradientUnits="userSpaceOnUse">
<stop stop-color="#97C3F9"/>
<stop offset="1" stop-color="#93C1F9"/>
</linearGradient>
<linearGradient id="paint33_linear_0_280" x1="54.3734" y1="258.387" x2="-17.0283" y2="76.5831" gradientUnits="userSpaceOnUse">
<stop/>
<stop offset="1" stop-color="white"/>
</linearGradient>
<linearGradient id="paint34_linear_0_280" x1="54.3734" y1="258.387" x2="-17.0283" y2="76.5831" gradientUnits="userSpaceOnUse">
<stop stop-color="#97C3F9"/>
<stop offset="1" stop-color="#93C1F9"/>
</linearGradient>
<linearGradient id="paint35_linear_0_280" x1="80.5776" y1="248.095" x2="9.17606" y2="66.2917" gradientUnits="userSpaceOnUse">
<stop/>
<stop offset="1" stop-color="white"/>
</linearGradient>
<linearGradient id="paint36_linear_0_280" x1="80.5776" y1="248.095" x2="9.17606" y2="66.2917" gradientUnits="userSpaceOnUse">
<stop stop-color="#97C3F9"/>
<stop offset="1" stop-color="#93C1F9"/>
</linearGradient>
<linearGradient id="paint37_linear_0_280" x1="106.782" y1="237.804" x2="35.3804" y2="56.0001" gradientUnits="userSpaceOnUse">
<stop/>
<stop offset="1" stop-color="white"/>
</linearGradient>
<linearGradient id="paint38_linear_0_280" x1="106.782" y1="237.804" x2="35.3804" y2="56.0001" gradientUnits="userSpaceOnUse">
<stop stop-color="#97C3F9"/>
<stop offset="1" stop-color="#93C1F9"/>
</linearGradient>
<linearGradient id="paint39_linear_0_280" x1="132.986" y1="227.512" x2="61.5847" y2="45.7085" gradientUnits="userSpaceOnUse">
<stop/>
<stop offset="1" stop-color="white"/>
</linearGradient>
<linearGradient id="paint40_linear_0_280" x1="132.986" y1="227.512" x2="61.5847" y2="45.7085" gradientUnits="userSpaceOnUse">
<stop stop-color="#97C3F9"/>
<stop offset="1" stop-color="#93C1F9"/>
</linearGradient>
<linearGradient id="paint41_linear_0_280" x1="19.2266" y1="272.19" x2="-52.1751" y2="90.3867" gradientUnits="userSpaceOnUse">
<stop/>
<stop offset="1" stop-color="white"/>
</linearGradient>
<linearGradient id="paint42_linear_0_280" x1="19.2266" y1="272.19" x2="-52.1751" y2="90.3867" gradientUnits="userSpaceOnUse">
<stop stop-color="#97C3F9"/>
<stop offset="1" stop-color="#93C1F9"/>
</linearGradient>
<linearGradient id="paint43_linear_0_280" x1="45.431" y1="261.899" x2="-25.9707" y2="80.0952" gradientUnits="userSpaceOnUse">
<stop/>
<stop offset="1" stop-color="white"/>
</linearGradient>
<linearGradient id="paint44_linear_0_280" x1="45.431" y1="261.899" x2="-25.9707" y2="80.0952" gradientUnits="userSpaceOnUse">
<stop stop-color="#97C3F9"/>
<stop offset="1" stop-color="#93C1F9"/>
</linearGradient>
<linearGradient id="paint45_linear_0_280" x1="71.6353" y1="251.608" x2="0.233718" y2="69.8039" gradientUnits="userSpaceOnUse">
<stop/>
<stop offset="1" stop-color="white"/>
</linearGradient>
<linearGradient id="paint46_linear_0_280" x1="71.6353" y1="251.608" x2="0.233718" y2="69.8039" gradientUnits="userSpaceOnUse">
<stop stop-color="#97C3F9"/>
<stop offset="1" stop-color="#93C1F9"/>
</linearGradient>
<linearGradient id="paint47_linear_0_280" x1="97.8397" y1="241.316" x2="26.438" y2="59.5122" gradientUnits="userSpaceOnUse">
<stop/>
<stop offset="1" stop-color="white"/>
</linearGradient>
<linearGradient id="paint48_linear_0_280" x1="97.8397" y1="241.316" x2="26.438" y2="59.5122" gradientUnits="userSpaceOnUse">
<stop stop-color="#97C3F9"/>
<stop offset="1" stop-color="#93C1F9"/>
</linearGradient>
<linearGradient id="paint49_linear_0_280" x1="124.044" y1="231.025" x2="52.6424" y2="49.2207" gradientUnits="userSpaceOnUse">
<stop/>
<stop offset="1" stop-color="white"/>
</linearGradient>
<linearGradient id="paint50_linear_0_280" x1="124.044" y1="231.025" x2="52.6424" y2="49.2207" gradientUnits="userSpaceOnUse">
<stop stop-color="#97C3F9"/>
<stop offset="1" stop-color="#93C1F9"/>
</linearGradient>
<clipPath id="clip0_0_280">
<rect width="778.734" height="557.403" fill="white" transform="translate(1593.04 791.608) rotate(-159.843)"/>
</clipPath>
</defs>
</svg>
